<?xml version="1.0" standalone="no"?>
<!DOCTYPE svg PUBLIC "-//W3C//DTD SVG 1.1//EN" "http://www.w3.org/Graphics/SVG/1.1/DTD/svg11.dtd" >
<svg>
<metadata>
Created by FontForge 20090914 at Thu Jan 25 03:25:17 2018
 By www-data
Converted by ALLTYPE
</metadata>
<defs>
<font id="Times-Roman" horiz-adv-x="250" >
  <font-face 
    font-family="Times-Roman"
    font-weight="5"
    font-stretch="normal"
    units-per-em="1000"
    panose-1="0 0 0 0 0 0 0 0 0 0"
    ascent="800"
    descent="-200"
    x-height="449.996"
    cap-height="662"
    bbox="-168 -218.002 1000 897.004"
    underline-thickness="50"
    underline-position="-55"
    unicode-range="U+0020-U+F002"
  />
<missing-glyph 
 />
    <glyph glyph-name=".notdef" 
 />
    <glyph glyph-name="space" unicode=" " 
 />
    <glyph glyph-name="space" unicode="&#xa0;" 
 />
    <glyph glyph-name="exclam" unicode="!" horiz-adv-x="333" 
d="M183 -9c-2.66699 0 -5.5 0.170898 -8.5 0.503906s-6.16699 1.16602 -9.5 2.49902c-8.66699 2.66699 -16.667 7.66699 -24 15s-11 18 -11 32c0 15.333 5.16699 28.166 15.5 38.499s22.833 15.5 37.5 15.5c15.333 0 28.333 -5.33301 39 -16s16 -23.334 16 -38.001
s-4.33301 -25.834 -13 -33.501s-18 -12.5 -28 -14.5c-2.66699 -0.666992 -5.16699 -1.16699 -7.5 -1.5s-4.5 -0.5 -6.5 -0.5v0zM189 176.004h-13.001l-9 108c-1.33301 14.667 -3.66602 35 -6.99902 61s-7 53 -11 81l-13 99c-4 31.333 -6 53.333 -6 66v6.5v7.5
c1.33301 17.333 5.83301 33.333 13.5 48s20.5 22 38.5 22c20 0 34 -7.5 42 -22.5s12 -34.5 12 -58.5v-17c0 -6 -0.666992 -12.333 -2 -19l-45 -382v0z" />
    <glyph glyph-name="quotedbl" unicode="&#x22;" horiz-adv-x="408" 
d="M130 431h-20.999c-2 9.33301 -4.16699 20.5 -6.5 33.5l-7.5 41.5c0 2.66699 -0.333008 5.16699 -1 7.5s-1 4.83301 -1 7.5l-11 68.5c-3.33301 21.667 -5 36.5 -5 44.5c0 12 3.66699 21.333 11 28s15.666 10.667 24.999 12c1.33301 0.666992 2.5 1 3.5 1h3.5h4
c1.33301 0 3 -0.333008 5 -1c8 -2 15.5 -6.33301 22.5 -13s10.5 -15.667 10.5 -27c0 -8 -1.66699 -22.833 -5 -44.5l-11 -68.5c0 -2.66699 -0.333008 -5.16699 -1 -7.5s-1 -4.83301 -1 -7.5l-7.5 -41.5c-2.33301 -13 -4.5 -24.5 -6.5 -34.5v1zM299.001 431h-20.999
c-2 9.33301 -4.16699 20.5 -6.5 33.5l-7.5 41.5c0 2.66699 -0.333008 5.16699 -1 7.5s-1 4.83301 -1 7.5l-11 68.5c-3.33301 21.667 -5 36.5 -5 44.5c0 12 3.66699 21.333 11 28s15.666 10.667 24.999 12c1.33301 0.666992 2.5 1 3.5 1h3.5h4c1.33301 0 3 -0.333008 5 -1
c8 -2 15.5 -6.33301 22.5 -13s10.5 -15.667 10.5 -27c0 -8 -1.66699 -22.833 -5 -44.5l-11 -68.5c0 -2.66699 -0.333008 -5.16699 -1 -7.5s-1 -4.83301 -1 -7.5l-7.5 -41.5c-2.33301 -13 -4.5 -24.5 -6.5 -34.5v1z" />
    <glyph glyph-name="numbersign" unicode="#" horiz-adv-x="500" 
d="M471 271v-55h-109l-31 -216h-58l31 216h-134l-33 -216h-58l33 216h-107v55h116l21 134h-110v55h118l31 202h58l-31 -202h133l30 202h58l-30 -202h97v-55h-105l-20 -134h100v0zM333 405h-133l-21 -134h134l20 134v0z" />
    <glyph glyph-name="dollar" unicode="$" horiz-adv-x="500" 
d="M425 500l-15.001 -0.00195312c-7.33301 38 -20 66.333 -38 85s-37 31.667 -57 39c-9.33301 3.33301 -18.166 6 -26.499 8s-16.5 3.33301 -24.5 4v-245l61.5 -36.5c18.333 -11 34.833 -21.833 49.5 -32.5c27.333 -19.333 47.833 -40.166 61.5 -62.499
s20.5 -51.166 20.5 -86.499c0 -57.333 -19 -98.833 -57 -124.5s-83.333 -41.834 -136 -48.501v-87h-34v87c-32.667 0 -61.334 3 -86.001 9s-45.334 12.667 -62.001 20c-8 4 -15.167 7.83301 -21.5 11.5l-16.5 9.5v131h15c11.333 -51.333 31 -89.833 59 -115.5
s65.333 -38.5 112 -38.5v283c-45.333 24.667 -86.333 52 -123 82s-55 69.333 -55 118v4.5v4.5c2.66699 34 17.834 65.5 45.501 94.5s71.834 45.5 132.501 49.5v64h34v-63c11.333 -2 23.5 -4 36.5 -6s26.167 -4.66699 39.5 -8c15.333 -3.33301 30.333 -8.16602 45 -14.499
s28 -14.833 40 -25.5v-110v0zM263.999 292.998l0.00195312 -265c6 0.666992 13.5 2 22.5 4s18.167 5 27.5 9c16 8 30.667 20.167 44 36.5s20 40.5 20 72.5c0 30 -8.16699 54.167 -24.5 72.5s-36.833 35.833 -61.5 52.5c-4.66699 2.66699 -9.33398 5.5 -14.001 8.5
s-9.33398 5.83301 -14.001 8.5v1zM229.001 406.998l-0.000976562 229.997c-26 -4.66699 -46 -12.167 -60 -22.5s-24 -21.166 -30 -32.499c-6 -10 -9.66699 -19.667 -11 -29s-2 -16.666 -2 -21.999c0 -19.333 5.16699 -36.333 15.5 -51s24.5 -28.667 42.5 -42
c6.66699 -5.33301 13.834 -10.666 21.501 -15.999l23.5 -16v1z" />
    <glyph glyph-name="percent" unicode="%" horiz-adv-x="833" 
d="M634 676l-385.002 -689.001h-48l349 622l-2 2c-1.33301 -1.33301 -2.66602 -2.33301 -3.99902 -3s-2.66602 -1.66699 -3.99902 -3c-11.333 -5.33301 -24.333 -10.5 -39 -15.5s-34 -7.5 -58 -7.5c-17.333 0 -30.333 0.666992 -39 2s-16.334 3.33301 -23.001 6
c-0.666992 0.666992 -1.33398 1.16699 -2.00098 1.5s-1.33398 0.5 -2.00098 0.5c0.666992 -2 1.16699 -3.83301 1.5 -5.5s0.833008 -3.5 1.5 -5.5c1.33301 -4.66699 2.33301 -9.5 3 -14.5s1 -11.5 1 -19.5c0 -12.667 -1.16699 -26.167 -3.5 -40.5
s-5.83301 -28.5 -10.5 -42.5c-13.333 -44 -36.5 -84.333 -69.5 -121s-73.833 -55 -122.5 -55c-6 0 -12.5 0.666992 -19.5 2s-14.167 3.33301 -21.5 6c-18.667 8 -36 22.167 -52 42.5s-24 48.833 -24 85.5c0 10.667 1 21.667 3 33s5 22.666 9 33.999
c15.333 42.667 41.333 81.667 78 117s78.334 53 125.001 53c21.333 0 37 -2.5 47 -7.5s18.667 -10.833 26 -17.5c0.666992 0 1.16699 -0.166992 1.5 -0.5l1.5 -1.5l1.5 -1.5l1.5 -1.5c8 -6 17.833 -11.5 29.5 -16.5s29.5 -7.5 53.5 -7.5c34.667 0 62.834 5.33301 84.501 16
s39.834 22.667 54.501 36c3.33301 2.66699 6.5 5.33398 9.5 8.00098s5.83301 5.33398 8.5 8.00098l39 1v0zM198.998 322.999c38 -0.666992 73.168 21.3359 105.501 66.0029s50.166 93.667 53.499 147c0.666992 2.66699 1 5.33398 1 8.00098v8
c0 3.33301 -0.166992 6.66602 -0.5 9.99902s-0.833008 6.66602 -1.5 9.99902c-0.666992 4 -1.5 8.16699 -2.5 12.5s-2.5 9.16602 -4.5 14.499c-22 5.33301 -36.333 10.666 -43 15.999l-15 12c-1.33301 1.33301 -2.83301 2.33301 -4.5 3s-3.83398 1 -6.50098 1
c-4.66699 0 -9.16699 -0.666992 -13.5 -2s-8.83301 -3.33301 -13.5 -6c-18.667 -10 -36.667 -27.833 -54 -53.5s-31.666 -53.167 -42.999 -82.5c-6 -16 -10.833 -32 -14.5 -48s-5.5 -30.333 -5.5 -43c0 -27.333 5.5 -46.5 16.5 -57.5s26.167 -16.5 45.5 -16.5v1z
M662.999 371.002c6 -0.666992 12.8311 -1.33301 20.498 -2s15.834 -2.33398 24.501 -5.00098c16 -4.66699 30.667 -14.667 44 -30s20 -40 20 -74c0 -11.333 -0.833008 -23.166 -2.5 -35.499s-4.16699 -24.5 -7.5 -36.5c-12 -47.333 -34.667 -90.5 -68 -129.5
s-74 -58.5 -122 -58.5c-46.667 0 -78.834 14 -96.501 42s-26.5 59.333 -26.5 94c0 8 0.5 16 1.5 24s2.5 16 4.5 24c12.667 46 38.834 88.5 78.501 127.5s82.834 58.5 129.501 58.5v1zM675.997 339.003c-27.333 -0.666992 -51.167 -13.5 -71.5 -38.5
s-36.833 -52.833 -49.5 -83.5c-10 -23.333 -17.5 -45.5 -22.5 -66.5s-7.5 -36.167 -7.5 -45.5c0 -4 0.166992 -9 0.5 -15s1.5 -12.667 3.5 -20c2.66699 -10 8.5 -19.333 17.5 -28s23.167 -13 42.5 -13c31.333 0 59.666 15 84.999 45s44.333 63 57 99
c4.66699 14 8.33398 27.833 11.001 41.5s4 26.5 4 38.5c0 24.667 -6.66699 45 -20 61s-30 24 -50 24v1z" />
    <glyph glyph-name="ampersand" unicode="&#x26;" horiz-adv-x="778" 
d="M711 426l0.0126953 -20.998c-0.666992 -0.666992 -1.16699 -1 -1.5 -1h-0.5c-18 -2.66699 -34.333 -7 -49 -13s-29 -21.333 -43 -46l-26 -45l-17 -31.5c-4.66699 -8.33301 -9.33398 -15.833 -14.001 -22.5c-0.666992 -1.33301 -1.33398 -2.5 -2.00098 -3.5
s-1.33398 -2.16699 -2.00098 -3.5c-6.66699 -10.667 -14.667 -22.334 -24 -35.001l-41 -55c2 -3.33301 6.66699 -9.16602 14 -17.499s16.666 -17.5 27.999 -27.5c14 -12 30.167 -22.833 48.5 -32.5s37.5 -14.5 57.5 -14.5c23.333 0 41.166 4 53.499 12
s23.833 18.333 34.5 31c1.33301 2 2.66602 3.83301 3.99902 5.5s2.66602 3.16699 3.99902 4.5l15 -10c0 -1.33301 -2.83301 -7.83301 -8.5 -19.5s-14.5 -24.167 -26.5 -37.5c-12 -14.667 -27.667 -27.667 -47 -39s-42.333 -17 -69 -17s-51 5.5 -73 16.5
s-41.333 23.167 -58 36.5c-8 6.66699 -15.333 13.167 -22 19.5s-12.334 12.166 -17.001 17.499l-17.5 -15c-6.33301 -5.33301 -13.5 -11 -21.5 -17c-20 -14.667 -44.667 -28 -74 -40s-65.666 -18 -108.999 -18c-8.66699 0 -18.334 0.666992 -29.001 2
s-21.334 3.66602 -32.001 6.99902c-26 6.66699 -49.833 21.167 -71.5 43.5s-32.5 56.833 -32.5 103.5c0 40.667 11.667 76.167 35 106.5s49 55.5 77 75.5l23 15.5c7.33301 5 14.666 9.5 21.999 13.5l38 23c-7.33301 19.333 -13.5 36.5 -18.5 51.5
s-8.83301 29.167 -11.5 42.5c-2 8 -3.33301 15.667 -4 23s-1 15.333 -1 24c0 4.66699 0.166992 9.5 0.5 14.5s1.16602 9.83301 2.49902 14.5c6 32 21.5 61.333 46.5 88s59.5 40 103.5 40c36.667 0 68.5 -10.5 95.5 -31.5s40.5 -50.5 40.5 -88.5s-11.333 -68.5 -34 -91.5
s-47.334 -42.167 -74.001 -57.5l-24 -12l-23 -11c18 -36 38.167 -71.5 60.5 -106.5s46.166 -68.167 71.499 -99.5l18 23.5c6.66699 9 13.334 18.833 20.001 29.5c6.66699 10 13.167 20.5 19.5 31.5s12.166 21.833 17.499 32.5c4.66699 11.333 8.5 22.333 11.5 33
s4.5 21 4.5 31c0 19.333 -6 31.5 -18 36.5s-27.333 8.16699 -46 9.5v22h216v0zM134.013 180.002c0 -39.333 12.667 -72.833 38 -100.5s55.666 -41.5 90.999 -41.5c11.333 0 29 3.66699 53 11s53.333 25.333 88 54c-20 24 -39 49.667 -57 77s-35.333 55 -52 83l-22 40l-21 39
l-20 -13c-7.33301 -4.66699 -14.666 -10 -21.999 -16c-18.667 -14 -36 -31.833 -52 -53.5s-24 -48.5 -24 -80.5v1zM281.013 557.002c0 -7.33301 0.333984 -14.1699 1.00098 -20.5029s1.66699 -12.833 3 -19.5c3.33301 -18 8.33301 -35.667 15 -53s13.667 -33.666 21 -48.999
c5.33301 2.66699 13 6.83398 23 12.501s20.667 12.834 32 21.501c15.333 12.667 29.5 28 42.5 46s19.5 39.333 19.5 64c0 25.333 -7.83301 45.666 -23.5 60.999s-34.167 23 -55.5 23c-20.667 0 -38.834 -6.66699 -54.501 -20s-23.5 -35.666 -23.5 -66.999v1z" />
    <glyph glyph-name="quotesingle" unicode="'" horiz-adv-x="180" 
d="M101 431h-20.999c-2 9.33301 -4.16699 20.5 -6.5 33.5l-7.5 41.5c0 2.66699 -0.333008 5.16699 -1 7.5s-1 4.83301 -1 7.5l-11 68.5c-3.33301 21.667 -5 36.5 -5 44.5c0 12 3.66699 21.333 11 28s15.666 10.667 24.999 12c1.33301 0.666992 2.5 1 3.5 1h3.5h4
c1.33301 0 3 -0.333008 5 -1c8 -2 15.5 -6.33301 22.5 -13s10.5 -15.667 10.5 -27c0 -8 -1.66699 -22.833 -5 -44.5l-11 -68.5c0 -2.66699 -0.333008 -5.16699 -1 -7.5s-1 -4.83301 -1 -7.5l-7.5 -41.5c-2.33301 -13 -4.5 -24.5 -6.5 -34.5v1z" />
    <glyph glyph-name="parenleft" unicode="(" horiz-adv-x="333" 
d="M295 676l9 -15.999l-21 -18c-7.33301 -6 -14.666 -12.333 -21.999 -19c-32 -29.333 -61.167 -70 -87.5 -122s-39.5 -129.667 -39.5 -233c0 -26 1 -58.667 3 -98s8.66699 -80 20 -122c11.333 -38.667 28.333 -76.5 51 -113.5s54.667 -68.833 96 -95.5l-12 -16
c-6.66699 3.33301 -13.167 7.16602 -19.5 11.499s-12.833 9.16602 -19.5 14.499c-15.333 11.333 -30.5 24.5 -45.5 39.5s-29.167 30.167 -42.5 45.5c-6.66699 7.33301 -12.834 15 -18.501 23l-16.5 23c-24.667 35.333 -44.5 73.833 -59.5 115.5s-22.5 96.834 -22.5 165.501
c0 86 21.833 165 65.5 237s104.167 131 181.5 177v1z" />
    <glyph glyph-name="parenright" unicode=")" horiz-adv-x="333" 
d="M38 -177l-9 15.998l21 17c7.33301 6 14.666 12.333 21.999 19c32 29.333 61.167 69.833 87.5 121.5s39.5 129.167 39.5 232.5c0 26 -1 58.667 -3 98s-8.66699 80 -20 122c-11.333 39.333 -28.333 77.5 -51 114.5s-54.667 68.833 -96 95.5l12 17
c6.66699 -4 13.167 -8.16699 19.5 -12.5s12.833 -9.16602 19.5 -14.499c15.333 -11.333 30.5 -24.5 45.5 -39.5s29.167 -30.167 42.5 -45.5c6.66699 -7.33301 12.834 -15 18.501 -23l16.5 -23c24.667 -36 44.5 -74.667 59.5 -116s22.5 -96.666 22.5 -165.999
c0 -86 -21.833 -164.833 -65.5 -236.5s-104.167 -130.5 -181.5 -176.5v0z" />
    <glyph glyph-name="asterisk" unicode="*" horiz-adv-x="500" 
d="M69 383c0 15.333 4.83691 25.833 14.5039 31.5s22.5 10.167 38.5 13.5c15.333 3.33301 32.666 7.66602 51.999 12.999s39.333 15 60 29l-11 8c-6 3.33301 -12 6.33301 -18 9s-12 5 -18 7c-10 3.33301 -19.833 6.16602 -29.5 8.49902l-27.5 6.5
c-17.333 3.33301 -31.833 8 -43.5 14s-17.5 17 -17.5 33c0 1.33301 0.333008 3.5 1 6.5s1.66699 6.16699 3 9.5c2.66699 4.66699 6.16699 8.83398 10.5 12.501s10.5 5.5 18.5 5.5c7.33301 0 13.666 -1.33301 18.999 -4s10.333 -6.33398 15 -11.001
c9.33301 -9.33301 20.166 -21.333 32.499 -36s31.833 -30 58.5 -46c2 -1.33301 4.16699 -2.66602 6.5 -3.99902s4.83301 -2.66602 7.5 -3.99902v14c0 19.333 -1.33301 35.5 -4 48.5s-5.33398 24.167 -8.00098 33.5l-4 10c-1.33301 3.33301 -2.33301 6.66602 -3 9.99902
c-2 5.33301 -3.5 10.833 -4.5 16.5s-1.5 11.834 -1.5 18.501c0 11.333 2 19.666 6 24.999s8.33301 9 13 11c4 1.33301 7.66699 2.16602 11 2.49902s5.66602 0.5 6.99902 0.5c8.66699 0 15.5 -2.33301 20.5 -7s8.5 -10 10.5 -16c1.33301 -2.66699 2.16602 -5.5 2.49902 -8.5
s0.5 -5.5 0.5 -7.5c0 -6.66699 -1.33301 -14.667 -4 -24l-9 -30c-4 -11.333 -7.33301 -23 -10 -35s-4 -24.667 -4 -38v-25l7 4c10 5.33301 19.167 11.5 27.5 18.5s16.166 14.167 23.499 21.5c10.667 10.667 20.334 21 29.001 31s17 18 25 24
c3.33301 2.66699 7 4.83398 11 6.50098s8 2.5 12 2.5c2 0 4.33301 -0.166992 7 -0.5s5.33398 -1.16602 8.00098 -2.49902c5.33301 -2 10.166 -5.66699 14.499 -11s6.5 -12.666 6.5 -21.999c0 -16 -3.66699 -26.5 -11 -31.5s-17.666 -8.83301 -30.999 -11.5
c-14 -2.66699 -31.167 -6.66699 -51.5 -12s-43.5 -16 -69.5 -32l8 -4c19.333 -12.667 38 -21.167 56 -25.5l48 -11.5c16 -2.66699 28.667 -6.66699 38 -12s14 -15.666 14 -30.999c0 -12 -3.66699 -21 -11 -27s-15.666 -9 -24.999 -9c-8 0 -15.167 2.16699 -21.5 6.5
s-12.833 9.83301 -19.5 16.5c-4.66699 4.66699 -9.33398 9.83398 -14.001 15.501l-15 17.5c-8 9.33301 -16.667 18.166 -26 26.499s-20.333 15.166 -33 20.499l-7 4v-7c0 -25.333 1.5 -45.5 4.5 -60.5s6.16699 -27.5 9.5 -37.5l7 -17c2 -4.66699 3.66699 -9.33398 5 -14.001
c0.666992 -2 1.16699 -4.16699 1.5 -6.5s0.5 -4.83301 0.5 -7.5v-4c0 -1.33301 -0.333008 -3 -1 -5c-2 -8 -6.16699 -15.5 -12.5 -22.5s-14.833 -10.5 -25.5 -10.5h-1.5h-1.5c-8 0.666992 -15.333 4.33398 -22 11.001s-10 16 -10 28c0 6.66699 1.5 14.5 4.5 23.5l9.5 29.5
c3.33301 10.667 6.5 22.167 9.5 34.5s4.5 25.166 4.5 38.499v9.5c0 3 -0.333008 6.16699 -1 9.5l-1 8l-32 -22.5c-7.33301 -5 -13.333 -9.5 -18 -13.5l-3.5 -3.5c-1 -1 -2.16699 -1.83301 -3.5 -2.5c-2.66699 -2.66699 -5.5 -5.66699 -8.5 -9l-10.5 -12l-23.5 -26
c-5.66699 -6 -11.167 -10.333 -16.5 -13c-2.66699 -1.33301 -5.66699 -2.33301 -9 -3s-7.33301 -1 -12 -1c-8.66699 0 -15.5 2 -20.5 6s-8.5 8.33301 -10.5 13c-1.33301 2.66699 -2.16602 5 -2.49902 7s-0.5 4 -0.5 6v1z" />
    <glyph glyph-name="plus" unicode="+" horiz-adv-x="564" 
d="M249 286v220h66v-220h219v-66h-219v-220h-66v220h-219v66h219v0z" />
    <glyph glyph-name="comma" unicode="," 
d="M83 -141l-8.99707 18.9971c3.33301 2 6.66602 4.16699 9.99902 6.5l9 6.5c25.333 19.333 42.166 37.5 50.499 54.5s12.5 29.833 12.5 38.5c0 4.66699 -1.5 8.16699 -4.5 10.5s-6.16699 3.5 -9.5 3.5c-0.666992 0 -1.83398 -0.166992 -3.50098 -0.5
s-3.5 -0.833008 -5.5 -1.5c-1.33301 -0.666992 -3.33301 -1.16699 -6 -1.5s-5.66699 -0.5 -9 -0.5c-2.66699 0 -5.5 0.166992 -8.5 0.5s-6.16699 0.833008 -9.5 1.5c-10.667 2 -20.667 6.5 -30 13.5s-14 18.167 -14 33.5c0 17.333 4.5 30.333 13.5 39
s18.833 14.334 29.5 17.001c2.66699 0.666992 5.16699 1.16699 7.5 1.5s4.83301 0.5 7.5 0.5c4 0 9.33301 -0.666992 16 -2s13.334 -3.66602 20.001 -6.99902c11.333 -5.33301 21.666 -14.666 30.999 -27.999s14 -33 14 -59c0 -21.333 -6.33301 -41.833 -19 -61.5
s-26.667 -36.5 -42 -50.5c-10 -8.66699 -19.5 -16 -28.5 -22s-16.5 -10 -22.5 -12v0z" />
    <glyph glyph-name="hyphen" unicode="-" horiz-adv-x="333" 
d="M39 257h246v-63h-246v63v0z" />
    <glyph glyph-name="period" unicode="." 
d="M125 -11c-2.66699 0 -5.67188 0.332031 -9.00488 0.999023s-6.66602 1.66699 -9.99902 3c-9.33301 3.33301 -17.666 8.83301 -24.999 16.5s-11 18.5 -11 32.5c0 16 5.5 29.5 16.5 40.5s23.833 16.5 38.5 16.5c15.333 0 28.5 -5.66699 39.5 -17s16.5 -24.666 16.5 -39.999
c0 -13.333 -3.66699 -23.833 -11 -31.5s-15.666 -13.5 -24.999 -17.5c-3.33301 -1.33301 -6.66602 -2.33301 -9.99902 -3s-6.66602 -1 -9.99902 -1v0z" />
    <glyph glyph-name="slash" unicode="/" horiz-adv-x="278" 
d="M287 676l-228 -690h-68l229 690h67v0z" />
    <glyph glyph-name="zero" unicode="0" horiz-adv-x="500" 
d="M250 676c62 -0.666992 109.165 -22.667 141.498 -66s54.833 -90.666 67.5 -141.999c6.66699 -25.333 11.167 -49.833 13.5 -73.5s3.5 -45.167 3.5 -64.5s-1.16699 -40.666 -3.5 -63.999s-6.5 -47 -12.5 -71c-12 -52.667 -34.167 -100.667 -66.5 -144
s-80.166 -65 -143.499 -65s-111.166 21.667 -143.499 65s-54.5 91.333 -66.5 144c-6 24 -10.167 47.667 -12.5 71s-3.5 44.666 -3.5 63.999s1.16699 40.833 3.5 64.5s6.83301 48.167 13.5 73.5c12.667 51.333 35.167 98.666 67.5 141.999s79.5 65 141.5 65v1zM249.998 650
c-37.333 -0.666992 -64.835 -18.501 -82.502 -53.501s-30.167 -73.5 -37.5 -115.5c-4.66699 -30.667 -7.5 -59.834 -8.5 -87.501s-1.5 -48.834 -1.5 -63.501c0 -16 0.333008 -37.167 1 -63.5s3.33398 -53.833 8.00098 -82.5c6 -43.333 18 -83 36 -119s46.333 -54 85 -54
c38 0 66 17.833 84 53.5s30.333 75.167 37 118.5c4.66699 28.667 7.33398 56.334 8.00098 83.001s1 48 1 64c0 14.667 -0.5 35.834 -1.5 63.501s-3.83301 56.834 -8.5 87.501c-7.33301 42 -19.833 80.5 -37.5 115.5s-45.167 52.5 -82.5 52.5v1z" />
    <glyph glyph-name="one" unicode="1" horiz-adv-x="500" 
d="M118 0v15c29.333 0.666992 52.5 4.5 69.5 11.5s25.5 28.833 25.5 65.5v454v4.5v4.5c-0.666992 9.33301 -3 17.833 -7 25.5s-13 11.5 -27 11.5h-3h-3c-4 -0.666992 -9.5 -2.16699 -16.5 -4.5s-22.167 -8.16602 -45.5 -17.499v15l180 91l8 -2v-600
c0 -24.667 6.5 -40.834 19.5 -48.501s38.167 -11.5 75.5 -11.5v-14h-276v0z" />
    <glyph glyph-name="two" unicode="2" horiz-adv-x="500" 
d="M475 137l-54.999 -136.998h-390v12l178 189c43.333 46 75.833 91 97.5 135s32.5 84.667 32.5 122c0 8 -0.666992 16.667 -2 26s-3.66602 19 -6.99902 29c-7.33301 22 -21.333 42.167 -42 60.5s-51.334 27.5 -92.001 27.5c-35.333 0 -62.5 -9.5 -81.5 -28.5
s-33.833 -39.833 -44.5 -62.5c-3.33301 -6.66699 -6.33301 -13.334 -9 -20.001s-5.33398 -13 -8.00098 -19l-21 6c14 68.667 39 117.667 75 147s74 46 114 50c4 0 7.83301 0.166992 11.5 0.5s7.5 0.5 11.5 0.5c45.333 0 86.833 -16 124.5 -48s56.5 -76 56.5 -132
c0 -36 -8 -69.833 -24 -101.5s-33.667 -59.834 -53 -84.501l-27 -32c-8.66699 -10 -16.667 -18.667 -24 -26l-168 -175h239c8.66699 -0.666992 16.5 -0.5 23.5 0.5s14.167 3.16699 21.5 6.5c7.33301 4 15 10.5 23 19.5s17 21.833 27 38.5l13 -4v0z" />
    <glyph glyph-name="three" unicode="3" horiz-adv-x="500" 
d="M153 330l-1.00586 13c45.333 14 84.333 34 117 60s49 62 49 108v2.5v3.5c-1.33301 24 -11.166 46.333 -29.499 67s-45.166 31 -80.499 31c-28 0 -51.5 -6 -70.5 -18s-34.5 -25.333 -46.5 -40c-7.33301 -9.33301 -13.666 -18.333 -18.999 -27s-9.33301 -15.667 -12 -21
l-15 5c14 44.667 32.667 78.667 56 102s47.666 39.333 72.999 48c12 4 23.5 6.83301 34.5 8.5s21.833 2.5 32.5 2.5c41.333 0 73 -8 95 -24s37.667 -33.667 47 -53c5.33301 -10.667 9 -21.167 11 -31.5s3 -19.166 3 -26.499c0 -26.667 -7.16699 -51.334 -21.5 -74.001
s-38.166 -44.667 -71.499 -66l24.5 -11c9 -4 18.167 -9.33301 27.5 -16c18.667 -12.667 35.834 -31.167 51.501 -55.5s23.5 -58.5 23.5 -102.5c0 -70.667 -26.5 -126.5 -79.5 -167.5s-118.833 -61.5 -197.5 -61.5c-5.33301 0 -12.833 0.333008 -22.5 1
s-19.5 2.33398 -29.5 5.00098c-14.667 3.33301 -28.167 8.66602 -40.5 15.999s-18.5 18.666 -18.5 33.999c0 10.667 2.83301 18.5 8.5 23.5s11.834 8.5 18.501 10.5c2 0 4 0.166992 6 0.5s4 0.5 6 0.5c6.66699 0 13 -1 19 -3s12 -4.33301 18 -7l14.5 -8.5l15.5 -9.5
c11.333 -6.66699 23.166 -13 35.499 -19s25.833 -9 40.5 -9c44 0 76.833 14.833 98.5 44.5s33.5 62.5 35.5 98.5v5.5v5.5c0 6.66699 -1.16699 16.5 -3.5 29.5s-6.83301 26.5 -13.5 40.5c-6 12 -13.667 23.5 -23 34.5s-21.333 20.167 -36 27.5
c-3.33301 2 -6.66602 3.83301 -9.99902 5.5s-6.66602 3.16699 -9.99902 4.5c-11.333 4.66699 -23.333 7.83398 -36 9.50098s-29 2.5 -49 2.5h-12h-13v1z" />
    <glyph glyph-name="four" unicode="4" horiz-adv-x="500" 
d="M472 231v-64h-102v-167h-77v167h-281v64l314 445h44v-445h102v0zM292 231v340h-2l-238 -340h240v0z" />
    <glyph glyph-name="five" unicode="5" horiz-adv-x="500" 
d="M181 583l-42.002 -84.999c11.333 -2.66699 23 -5.16699 35 -7.5s24 -4.83301 36 -7.5c30 -7.33301 59.167 -17.5 87.5 -30.5s53.166 -32.5 74.499 -58.5c6 -7.33301 11.333 -14.166 16 -20.499s9 -12.833 13 -19.5c9.33301 -16 15.833 -33.667 19.5 -53s5.5 -45 5.5 -77
c0 -66.667 -24.833 -123 -74.5 -169s-114.167 -69 -193.5 -69c-39.333 0 -70.166 5.33301 -92.499 16s-33.5 25 -33.5 43c0 2 0.166992 4.66699 0.5 8s0.833008 6.66602 1.5 9.99902c2 5.33301 5.83301 10.166 11.5 14.499s14.5 6.5 26.5 6.5c16 0 30 -3.16699 42 -9.5
s23.333 -13.5 34 -21.5c2 -1.33301 3.83301 -2.5 5.5 -3.5s3.16699 -2.16699 4.5 -3.5c9.33301 -6.66699 18.666 -12.334 27.999 -17.001s19.666 -7 30.999 -7c3.33301 0 6.83301 0.166992 10.5 0.5s7.16699 0.833008 10.5 1.5c29.333 5.33301 56.333 22.333 81 51
s37 70.334 37 125.001c0 57.333 -19.167 101.333 -57.5 132s-80.166 52 -125.499 64c-18 4.66699 -35.667 8.16699 -53 10.5s-33.666 3.83301 -48.999 4.5c-2 0 -3.66699 0.666992 -5 2s-2 3.33301 -2 6v1.5v1.5l0.5 0.5c0.333008 0.333008 0.5 0.833008 0.5 1.5l109 238
h209c11.333 -0.666992 20 1 26 5s11.667 9 17 15c0 1.33301 0.333008 2.33301 1 3l2 2l9 -6l-38 -89c-1.33301 -5.33301 -4.16602 -8.33301 -8.49902 -9s-9.16602 -1 -14.499 -1l-196 1v0z" />
    <glyph glyph-name="six" unicode="6" horiz-adv-x="500" 
d="M446 684l2.00293 -15.999c-79.333 -13.333 -143 -44 -191 -92s-80 -99.333 -96 -154c-2 -6.66699 -3.66699 -13.334 -5 -20.001l-4 -20c13.333 8 25.166 14.833 35.499 20.5s20.166 10.5 29.499 14.5c9.33301 3.33301 19.333 5.83301 30 7.5s23 2.5 37 2.5
c53.333 0 97.333 -18.167 132 -54.5s52 -88.166 52 -155.499c0 -12.667 -1.33301 -27.667 -4 -45s-7.33398 -35 -14.001 -53c-12.667 -33.333 -34 -63.833 -64 -91.5s-74 -41.5 -132 -41.5c-58.667 0 -110 24.5 -154 73.5s-66 125.833 -66 230.5
c0 101.333 38.5 191.166 115.5 269.499s175.833 119.5 296.5 123.5v1zM242.003 382.001c-2.66699 -0.666992 -5.33008 -1.00098 -7.99707 -1.00098s-5.33398 -0.333008 -8.00098 -1c-14.667 -0.666992 -28.834 -3.5 -42.501 -8.5s-25.834 -12.5 -36.501 -22.5
c-4.66699 -4.66699 -9.16699 -14 -13.5 -28s-6.5 -36 -6.5 -66c0 -84 14.333 -145.333 43 -184s61.667 -58 99 -58c31.333 0 57.333 13.333 78 40s31 68.334 31 125.001c0 51.333 -9.33301 98 -28 140s-54.667 63 -108 63v1z" />
    <glyph glyph-name="seven" unicode="7" horiz-adv-x="500" 
d="M449 662l-0.000976562 -16l-212 -654h-65l198 596h-217c-24.667 -0.666992 -43.667 -5 -57 -13s-25.666 -19.667 -36.999 -35l-10.5 -16.5l-11.5 -17.5l-17 9l43 103l16 44h370v0z" />
    <glyph glyph-name="eight" unicode="8" horiz-adv-x="500" 
d="M56 146c0 25.333 3.83105 46.8369 11.498 64.5039s19.167 34.834 34.5 51.501c10.667 10 22.834 20.667 36.501 32s29.5 23.666 47.5 36.999l-51 46c-14.667 13.333 -27 26.333 -37 39c-12 15.333 -21 31 -27 47s-9 35 -9 57c0 44 16 78.833 48 104.5s67 41.5 105 47.5
c6 1.33301 11.833 2.16602 17.5 2.49902s11.167 0.5 16.5 0.5c56.667 0 100 -14.167 130 -42.5s45 -61.5 45 -99.5c0 -34.667 -9.5 -62.834 -28.5 -84.501s-39.833 -39.834 -62.5 -54.501c-7.33301 -4.66699 -14.666 -9 -21.999 -13l-21 -11
c54 -38.667 91.667 -72.334 113 -101.001s34.333 -56 39 -82c1.33301 -6.66699 2.16602 -13 2.49902 -19s0.5 -12.333 0.5 -19c0 -9.33301 -1.16699 -20 -3.5 -32s-6.5 -24.333 -12.5 -37c-11.333 -24 -31.166 -45.667 -59.499 -65s-69.5 -29 -123.5 -29
c-59.333 0 -105 15.333 -137 46s-49.667 64.667 -53 102v5.5v5.5v1zM211.998 312.004c-4 -4 -8.16699 -7.83203 -12.5 -11.499s-8.83301 -7.83398 -13.5 -12.501c-13.333 -12.667 -25.666 -29.5 -36.999 -50.5s-17 -48.5 -17 -82.5c0 -38.667 11 -72 33 -100
s53.333 -42 94 -42c31.333 0 57.5 10 78.5 30s31.5 47.333 31.5 82c0 16.667 -2.33301 31.667 -7 45s-12 26 -22 38c-12.667 14.667 -29.334 30 -50.001 46s-46.667 35 -78 57v1zM135.998 547.005c0 -25.333 7.33105 -47.999 21.998 -67.999s30.667 -37.333 48 -52
c10.667 -8.66699 20.834 -16.334 30.501 -23.001s17.834 -12 24.501 -16l14.5 10c5 3.33301 10.167 7 15.5 11c16 12.667 30.667 29 44 49s20 46.667 20 80c0 27.333 -9 52.333 -27 75s-46.333 34 -85 34c-34 0 -59.5 -9.16699 -76.5 -27.5s-26.833 -38.833 -29.5 -61.5
c-0.666992 -2 -1 -4 -1 -6v-6v1z" />
    <glyph glyph-name="nine" unicode="9" horiz-adv-x="500" 
d="M59 -22l-2.99805 20c58 8.66699 106 26.834 144 54.501s68.333 57.167 91 88.5c24 34 41 65.5 51 94.5s15.667 46.833 17 53.5l-2 3c-16.667 -14.667 -34.334 -26.334 -53.001 -35.001s-37.334 -14.667 -56.001 -18l-19.5 -2c-6.33301 -0.666992 -12.5 -1 -18.5 -1
c-52 0 -91.5 14.5 -118.5 43.5s-44.833 60.833 -53.5 95.5c-2.66699 10 -4.66699 20 -6 30s-2 19.667 -2 29c0 66.667 18.833 123.5 56.5 170.5s88.834 70.5 153.501 70.5c61.333 0 113.166 -25.833 155.499 -77.5s63.5 -119.167 63.5 -202.5
c0 -106 -34.833 -200 -104.5 -282s-168.167 -127 -295.5 -135v0zM362.002 355l0.000976562 39.002c0 11.333 -0.333008 27.833 -1 49.5s-3.33398 44.5 -8.00098 68.5c-6.66699 33.333 -19.167 64.166 -37.5 92.499s-47.166 42.5 -86.499 42.5
c-37.333 0 -63.833 -15.5 -79.5 -46.5s-24.5 -65.167 -26.5 -102.5c-0.666992 -4 -1 -8.16699 -1 -12.5v-13.5c0 -10 0.333008 -20.5 1 -31.5s2.33398 -22.167 5.00098 -33.5c5.33301 -32 17.166 -61.333 35.499 -88s47.166 -40 86.499 -40c4.66699 0 9.66699 0.333008 15 1
s10.666 1.66699 15.999 3c12 3.33301 23.333 7.5 34 12.5s20 10.167 28 15.5c0 0.666992 0.333008 1.16699 1 1.5s1.33398 0.833008 2.00098 1.5c6.66699 5.33301 11 11.166 13 17.499s3 13.833 3 22.5v1z" />
    <glyph glyph-name="colon" unicode=":" horiz-adv-x="278" 
d="M136 -11c-2.66699 0 -5.67188 0.332031 -9.00488 0.999023s-6.66602 1.66699 -9.99902 3c-9.33301 3.33301 -17.666 8.83301 -24.999 16.5s-11 18.5 -11 32.5c0 16 5.5 29.5 16.5 40.5s23.833 16.5 38.5 16.5c15.333 0 28.5 -5.66699 39.5 -17s16.5 -24.666 16.5 -39.999
c0 -13.333 -3.66699 -23.833 -11 -31.5s-15.666 -13.5 -24.999 -17.5c-3.33301 -1.33301 -6.66602 -2.33301 -9.99902 -3s-6.66602 -1 -9.99902 -1v0zM135.995 347.999</font>
</defs>
</svg>
